<svg width="104" height="42" viewBox="0 0 104 42" fill="none" xmlns="http://www.w3.org/2000/svg">
<path d="M5.33 34.067C3.82667 34.067 2.69233 33.8073 1.927 33.288C1.16167 32.796 0.779 31.9623 0.779 30.787C0.779 30.705 0.847333 30.664 0.984 30.664C1.17533 30.664 1.517 30.7323 2.009 30.869C2.501 31.0057 3.444 31.074 4.838 31.074C7.18867 31.074 9.36167 30.8143 11.357 30.295C13.3523 29.7483 15.0743 29.0103 16.523 28.081C17.999 27.1517 19.1333 26.113 19.926 24.965C20.746 23.7897 21.156 22.587 21.156 21.357C21.156 20.2363 20.8417 19.3343 20.213 18.651C19.5843 17.9677 18.7507 17.4483 17.712 17.093C16.7007 16.7377 15.5937 16.5053 14.391 16.396C13.1883 16.2593 11.9993 16.191 10.824 16.191C10.3047 16.191 9.77167 16.2047 9.225 16.232C8.70567 16.232 8.21367 16.232 7.749 16.232C7.12033 18.446 6.50533 20.6737 5.904 22.915C5.30267 25.1563 4.68767 27.3293 4.059 29.434C3.37567 29.434 2.80167 29.2427 2.337 28.86C1.87233 28.4773 1.64 28.0127 1.64 27.466C1.64 27.138 1.70833 26.7553 1.845 26.318C1.98167 25.8807 2.10467 25.4843 2.214 25.129C2.378 24.5823 2.665 23.6667 3.075 22.382C3.485 21.0973 3.977 19.594 4.551 17.872C5.15233 16.15 5.80833 14.346 6.519 12.46C7.22967 10.574 7.954 8.729 8.692 6.925C9.45733 5.121 10.1953 3.522 10.906 2.128C9.758 2.31933 8.78767 2.59266 7.995 2.948C7.22967 3.30333 6.62833 3.63133 6.191 3.932C5.75367 4.20533 5.43933 4.342 5.248 4.342C5.11133 4.342 4.93367 4.28733 4.715 4.178C4.52367 4.04133 4.346 3.891 4.182 3.727C4.018 3.53567 3.936 3.37167 3.936 3.235C5.30267 2.661 6.724 2.14167 8.2 1.677C9.70333 1.21233 11.521 0.979999 13.653 0.979999C14.555 0.979999 15.5527 1.062 16.646 1.226C17.7393 1.36266 18.778 1.66333 19.762 2.128C20.746 2.56533 21.5523 3.22133 22.181 4.096C22.8097 4.94333 23.124 6.07767 23.124 7.499C23.124 8.83833 22.837 9.98633 22.263 10.943C21.689 11.8723 20.9373 12.6513 20.008 13.28C19.0787 13.8813 18.0673 14.3597 16.974 14.715C15.8807 15.0703 14.801 15.33 13.735 15.494C15.7577 15.6033 17.384 15.8903 18.614 16.355C19.8713 16.8197 20.8143 17.38 21.443 18.036C22.099 18.6647 22.5363 19.3343 22.755 20.045C22.9737 20.7557 23.083 21.439 23.083 22.095C23.083 23.6803 22.673 25.1153 21.853 26.4C21.033 27.6847 19.9533 28.8053 18.614 29.762C17.2747 30.7187 15.8123 31.5113 14.227 32.14C12.6417 32.796 11.07 33.2743 9.512 33.575C7.954 33.903 6.56 34.067 5.33 34.067ZM7.995 15.289C9.49833 15.2343 10.988 15.0703 12.464 14.797C13.9673 14.4963 15.334 14.0317 16.564 13.403C17.794 12.7743 18.778 11.9543 19.516 10.943C20.2813 9.93167 20.664 8.67433 20.664 7.171C20.664 5.74967 20.3223 4.65633 19.639 3.891C18.983 3.12566 18.122 2.59267 17.056 2.292C16.0173 1.99133 14.9103 1.841 13.735 1.841C13.5983 1.841 13.4617 1.841 13.325 1.841C13.2157 1.841 13.0927 1.85466 12.956 1.882C11.972 3.79533 11.07 5.9 10.25 8.196C9.45733 10.492 8.70567 12.8563 7.995 15.289ZM29.3723 32.304C27.705 32.304 26.4477 31.8393 25.6003 30.91C24.7803 30.008 24.3703 28.8873 24.3703 27.548C24.3703 26.318 24.671 25.0197 25.2723 23.653C25.901 22.2863 26.721 21.0017 27.7323 19.799C28.771 18.5963 29.9053 17.626 31.1353 16.888C32.3653 16.1227 33.5817 15.74 34.7843 15.74C35.413 15.74 35.987 15.904 36.5063 16.232C37.053 16.56 37.3263 17.2297 37.3263 18.241C37.3263 19.2797 37.012 20.2637 36.3833 21.193C35.782 22.095 34.9757 22.9013 33.9643 23.612C32.9803 24.3227 31.887 24.9103 30.6843 25.375C29.509 25.8123 28.3337 26.0857 27.1583 26.195C27.1037 26.4683 27.0627 26.728 27.0353 26.974C27.008 27.22 26.9943 27.4523 26.9943 27.671C26.9943 28.081 27.0353 28.491 27.1173 28.901C27.2267 29.311 27.4043 29.6937 27.6503 30.049C27.8963 30.377 28.2243 30.6367 28.6343 30.828C29.0717 31.0193 29.6047 31.115 30.2333 31.115C31.4087 31.115 32.5703 30.787 33.7183 30.131C34.8663 29.4477 35.9323 28.5593 36.9163 27.466C37.9003 26.3727 38.734 25.17 39.4173 23.858L39.9093 24.227C39.1713 25.867 38.2283 27.2883 37.0803 28.491C35.9597 29.6937 34.7297 30.623 33.3903 31.279C32.0783 31.9623 30.739 32.304 29.3723 32.304ZM27.3633 25.416C28.1013 25.17 28.935 24.8147 29.8643 24.35C30.7937 23.858 31.682 23.284 32.5293 22.628C33.404 21.972 34.1147 21.2477 34.6613 20.455C35.2353 19.6623 35.5223 18.8287 35.5223 17.954C35.5223 17.6533 35.4677 17.421 35.3583 17.257C35.249 17.093 35.0167 17.011 34.6613 17.011C34.0053 17.011 33.3083 17.2707 32.5703 17.79C31.8323 18.282 31.1217 18.938 30.4383 19.758C29.755 20.578 29.14 21.48 28.5933 22.464C28.0467 23.448 27.6367 24.432 27.3633 25.416ZM40.5657 32.427C39.7183 32.427 39.0077 32.14 38.4337 31.566C37.8323 31.0193 37.5317 30.172 37.5317 29.024C37.5317 28.04 37.7503 26.9877 38.1877 25.867C38.625 24.719 39.2263 23.5983 39.9917 22.505C40.757 21.3843 41.618 20.373 42.5747 19.471C43.5587 18.5417 44.5837 17.8037 45.6497 17.257C46.743 16.7103 47.8227 16.437 48.8887 16.437C49.9547 16.437 50.843 16.724 51.5537 17.298C52.2643 17.8447 52.6197 18.5827 52.6197 19.512C52.6197 20.1953 52.4283 20.66 52.0457 20.906C51.6903 21.152 51.212 21.275 50.6107 21.275C50.6653 21.0563 50.7063 20.824 50.7337 20.578C50.7883 20.3047 50.8157 20.0587 50.8157 19.84C50.8157 19.2113 50.6653 18.6783 50.3647 18.241C50.064 17.7763 49.5447 17.544 48.8067 17.544C48.0413 17.544 47.2623 17.8173 46.4697 18.364C45.677 18.8833 44.9117 19.594 44.1737 20.496C43.4357 21.3707 42.7797 22.3273 42.2057 23.366C41.6317 24.4047 41.1807 25.4297 40.8527 26.441C40.5247 27.4523 40.3607 28.3543 40.3607 29.147C40.3607 30.213 40.7297 30.746 41.4677 30.746C42.0963 30.746 42.7797 30.459 43.5177 29.885C44.2557 29.2837 45.0073 28.532 45.7727 27.63C46.5653 26.7007 47.317 25.744 48.0277 24.76C48.7383 23.776 49.367 22.874 49.9137 22.054C50.023 21.89 50.0913 21.808 50.1187 21.808C50.2827 21.8353 50.4877 21.89 50.7337 21.972C51.007 22.054 51.2393 22.1633 51.4307 22.3C51.622 22.4367 51.7177 22.6143 51.7177 22.833C51.7177 23.079 51.5947 23.4207 51.3487 23.858C51.1027 24.268 50.8293 24.7463 50.5287 25.293C50.228 25.8397 49.9547 26.4 49.7087 26.974C49.4627 27.5207 49.3397 28.04 49.3397 28.532C49.3397 28.942 49.449 29.352 49.6677 29.762C49.8863 30.1447 50.2417 30.336 50.7337 30.336C51.4717 30.336 52.442 29.803 53.6447 28.737C54.8473 27.6437 56.0637 26.0173 57.2937 23.858L57.7037 24.268C57.1297 25.744 56.3917 27.0423 55.4897 28.163C54.5877 29.2837 53.6173 30.1583 52.5787 30.787C51.5673 31.4157 50.5697 31.73 49.5857 31.73C48.5743 31.73 47.8227 31.4293 47.3307 30.828C46.866 30.2267 46.6337 29.5707 46.6337 28.86C46.6337 28.696 46.6473 28.5183 46.6747 28.327C46.702 28.1083 46.7293 27.8897 46.7567 27.671C45.5813 29.2563 44.5017 30.4453 43.5177 31.238C42.561 32.0307 41.577 32.427 40.5657 32.427ZM59.5301 31.73C58.6007 31.73 57.8491 31.32 57.2751 30.5C56.7284 29.6527 56.4551 28.6823 56.4551 27.589C56.4551 26.7963 56.5781 25.8807 56.8241 24.842C57.0974 23.8033 57.4254 22.7783 57.8081 21.767C58.1907 20.7557 58.5871 19.922 58.9971 19.266C59.4071 18.61 59.7624 18.282 60.0631 18.282C60.1997 18.282 60.4321 18.364 60.7601 18.528C61.0881 18.6647 61.3614 18.856 61.5801 19.102C61.2794 19.5667 60.9104 20.2773 60.4731 21.234C60.0357 22.1907 59.6531 23.2157 59.3251 24.309C58.9971 25.4023 58.8331 26.4137 58.8331 27.343C58.8331 27.5617 58.8604 27.9033 58.9151 28.368C58.9697 28.8053 59.1064 29.2017 59.3251 29.557C59.5437 29.9123 59.8717 30.09 60.3091 30.09C60.8284 30.09 61.3614 29.8303 61.9081 29.311C62.4547 28.7643 63.0014 28.0673 63.5481 27.22C64.1221 26.3727 64.6687 25.457 65.1881 24.473C65.7074 23.489 66.1857 22.546 66.6231 21.644C67.0877 20.742 67.4704 19.9903 67.7711 19.389C67.9351 19.4163 68.1674 19.471 68.4681 19.553C68.7961 19.635 69.0831 19.7443 69.3291 19.881C69.6024 20.0177 69.7391 20.209 69.7391 20.455C69.7391 20.5643 69.6024 20.9333 69.3291 21.562C69.0557 22.1633 68.7277 22.915 68.3451 23.817C67.9897 24.6917 67.6754 25.58 67.4021 26.482C67.1287 27.384 66.9921 28.1767 66.9921 28.86C66.9921 29.352 67.0877 29.7483 67.2791 30.049C67.4977 30.3497 67.8531 30.5 68.3451 30.5C68.9191 30.5 69.6161 30.2403 70.4361 29.721C71.2561 29.2017 72.0897 28.45 72.9371 27.466C73.7844 26.4547 74.5361 25.252 75.1921 23.858L75.7251 24.227C75.1511 25.703 74.3994 27.015 73.4701 28.163C72.5407 29.2837 71.5567 30.1583 70.5181 30.787C69.4794 31.4157 68.4681 31.73 67.4841 31.73C66.7734 31.73 66.1994 31.5933 65.7621 31.32C65.3521 31.0467 65.0514 30.6777 64.8601 30.213C64.6961 29.7483 64.6141 29.2427 64.6141 28.696C64.6141 28.368 64.6414 28.04 64.6961 27.712C64.7507 27.3567 64.8191 27.0013 64.9011 26.646C64.4091 27.548 63.8761 28.3953 63.3021 29.188C62.7281 29.9533 62.1267 30.5683 61.4981 31.033C60.8694 31.4977 60.2134 31.73 59.5301 31.73ZM77.9176 32.386C76.7423 32.386 75.8403 32.0443 75.2116 31.361C74.583 30.6777 74.2686 29.6663 74.2686 28.327C74.2686 27.1243 74.4873 25.6483 74.9246 23.899C75.3893 22.1223 75.9633 20.3047 76.6466 18.446C76.3733 18.3913 76.1136 18.3503 75.8676 18.323C75.6216 18.2683 75.3893 18.2 75.1706 18.118V17.38C75.3893 17.4073 75.649 17.4347 75.9496 17.462C76.2503 17.4893 76.592 17.5167 76.9746 17.544C77.5486 16.068 78.1636 14.6467 78.8196 13.28C79.4756 11.886 80.118 10.656 80.7466 9.59C81.4026 8.49667 82.0176 7.63567 82.5916 7.007C83.193 6.351 83.6986 6.023 84.1086 6.023C84.3273 6.023 84.5186 6.105 84.6826 6.269C84.874 6.40567 84.9696 6.62433 84.9696 6.925C84.9696 7.38967 84.6826 8.155 84.1086 9.221C83.5346 10.2597 82.824 11.5033 81.9766 12.952C81.1293 14.4007 80.3093 15.9723 79.5166 17.667C79.7626 17.667 80.0086 17.667 80.2546 17.667C80.528 17.667 80.7876 17.667 81.0336 17.667C81.9356 17.667 82.8786 17.6533 83.8626 17.626C84.874 17.5987 85.8853 17.5303 86.8966 17.421V18.159C85.3933 18.323 84.0403 18.446 82.8376 18.528C81.6623 18.61 80.61 18.651 79.6806 18.651C79.5713 18.651 79.462 18.651 79.3526 18.651C79.2706 18.651 79.175 18.651 79.0656 18.651C78.437 20.0997 77.904 21.5893 77.4666 23.12C77.0293 24.6507 76.8106 26.1403 76.8106 27.589C76.8106 28.7643 76.9883 29.6117 77.3436 30.131C77.699 30.623 78.2866 30.869 79.1066 30.869C80.528 30.869 81.922 30.2403 83.2886 28.983C84.6553 27.7257 85.858 26.0173 86.8966 23.858L87.4296 24.268C86.7736 25.7987 85.94 27.179 84.9286 28.409C83.9446 29.639 82.8513 30.6093 81.6486 31.32C80.446 32.0307 79.2023 32.386 77.9176 32.386ZM87.887 41.98C87.2037 41.98 86.6024 41.7887 86.083 41.406C85.5637 41.0507 85.304 40.5177 85.304 39.807C85.304 38.9323 85.5227 38.1533 85.96 37.47C86.3974 36.7867 86.985 36.158 87.723 35.584C88.461 35.01 89.3084 34.4633 90.265 33.944C91.2217 33.4247 92.2194 32.9053 93.258 32.386C93.6407 31.3747 94.0234 30.254 94.406 29.024C94.816 27.7667 95.1987 26.3863 95.554 24.883C94.6794 26.3043 93.7364 27.5343 92.725 28.573C91.741 29.5843 90.6887 30.09 89.568 30.09C89.0487 30.09 88.5294 29.9807 88.01 29.762C87.518 29.516 87.108 29.147 86.78 28.655C86.452 28.163 86.288 27.5343 86.288 26.769C86.288 26.0037 86.411 25.1153 86.657 24.104C86.9304 23.0927 87.2584 22.1087 87.641 21.152C88.0237 20.1953 88.42 19.4027 88.83 18.774C89.24 18.1453 89.5954 17.831 89.896 17.831C90.0054 17.831 90.1967 17.872 90.47 17.954C90.7707 18.036 91.044 18.159 91.29 18.323C91.5634 18.4597 91.7 18.61 91.7 18.774C91.454 19.1293 91.1807 19.635 90.88 20.291C90.5794 20.947 90.2787 21.685 89.978 22.505C89.7047 23.2977 89.4724 24.0767 89.281 24.842C89.0897 25.6073 88.994 26.2633 88.994 26.81C88.994 27.302 89.1034 27.6983 89.322 27.999C89.5407 28.2997 89.9234 28.45 90.47 28.45C90.9894 28.45 91.5634 28.204 92.192 27.712C92.848 27.1927 93.4904 26.5367 94.119 25.744C94.775 24.9513 95.3764 24.104 95.923 23.202C96.005 22.9013 96.0734 22.6007 96.128 22.3C96.21 21.972 96.2784 21.644 96.333 21.316C96.415 20.9333 96.6064 20.496 96.907 20.004C97.235 19.4847 97.7407 19.225 98.424 19.225C98.5607 19.225 98.6974 19.2387 98.834 19.266C98.9707 19.266 99.121 19.2933 99.285 19.348C99.285 19.7853 99.1484 20.6053 98.875 21.808C98.629 22.9833 98.26 24.3637 97.768 25.949C97.3034 27.5343 96.743 29.1607 96.087 30.828C97.3717 30.336 98.629 29.5297 99.859 28.409C101.089 27.261 102.087 25.744 102.852 23.858L103.385 24.268C102.975 25.58 102.346 26.728 101.499 27.712C100.679 28.6687 99.7497 29.5023 98.711 30.213C97.6724 30.8963 96.6474 31.4703 95.636 31.935C94.9254 33.6843 94.1464 35.3243 93.299 36.855C92.479 38.3857 91.6044 39.6157 90.675 40.545C89.773 41.5017 88.8437 41.98 87.887 41.98ZM87.682 40.668C88.092 40.668 88.7754 40.1213 89.732 39.028C90.716 37.962 91.7547 36.076 92.848 33.37C91.7274 33.9713 90.6887 34.559 89.732 35.133C88.7754 35.7343 88.01 36.3767 87.436 37.06C86.862 37.7433 86.575 38.536 86.575 39.438C86.575 39.6567 86.657 39.9163 86.821 40.217C86.985 40.5177 87.272 40.668 87.682 40.668Z" fill="#8F2121"/>
</svg>
